<?xml version="1.0" standalone="no"?>
<!DOCTYPE svg PUBLIC "-//W3C//DTD SVG 20010904//EN"
 "http://www.w3.org/TR/2001/REC-SVG-20010904/DTD/svg10.dtd">
<svg version="1.0" xmlns="http://www.w3.org/2000/svg"
 width="368.000000pt" height="186.000000pt" viewBox="0 0 368.000000 186.000000"
 preserveAspectRatio="xMidYMid meet">

<g transform="translate(0.000000,186.000000) scale(0.100000,-0.100000)"
fill="#000000" stroke="none">
<path d="M1090 1326 c-93 -25 -162 -86 -207 -181 -25 -55 -28 -70 -28 -170 1
-90 5 -120 23 -167 29 -71 87 -132 160 -166 51 -24 69 -27 162 -26 86 0 117 5
170 25 l65 24 3 73 c2 39 0 72 -3 72 -3 0 -28 -16 -56 -35 -136 -93 -273 -69
-342 60 -18 33 -22 57 -22 140 0 114 17 158 79 213 72 63 202 51 305 -29 13
-11 28 -19 32 -19 5 0 9 31 9 70 0 67 -1 70 -30 85 -78 41 -231 56 -320 31z"/>
<path d="M1696 1324 c-122 -39 -184 -118 -173 -222 11 -107 67 -151 242 -194
135 -33 165 -50 165 -94 0 -41 -17 -61 -65 -80 -69 -26 -160 -14 -255 33 -41
21 -78 39 -82 41 -5 2 -8 -30 -8 -72 l0 -75 73 -23 c104 -33 280 -33 352 0 63
29 102 66 126 117 36 78 19 168 -41 218 -44 37 -82 52 -197 77 -109 23 -140
39 -149 74 -17 68 30 101 141 101 72 0 88 -4 150 -35 39 -19 74 -37 78 -38 4
-2 7 29 5 70 l-3 73 -55 18 c-78 26 -240 32 -304 11z"/>
<path d="M2200 975 l0 -355 75 0 75 0 0 124 0 124 103 4 c122 5 190 30 241 89
80 94 73 245 -15 312 -60 45 -126 57 -311 57 l-168 0 0 -355z m305 235 c23 -5
50 -21 64 -36 19 -23 22 -36 18 -77 -7 -82 -61 -116 -184 -117 l-53 0 0 120 0
120 58 0 c31 0 75 -5 97 -10z"/>
</g>
</svg>
